<?xml version="1.0" encoding="utf-8"?>
<!-- Generator: Adobe Illustrator 19.0.1, SVG Export Plug-In . SVG Version: 6.00 Build 0)  -->
<svg version="1.1" id="github" xmlns="http://www.w3.org/2000/svg" xmlns:xlink="http://www.w3.org/1999/xlink" x="0px" y="0px"
	 viewBox="0 0 120 120" style="enable-background:new 0 0 120 120;" xml:space="preserve">
<style type="text/css">
	.st0{enable-background:new    ;}
	.st1{clip-path:url(#SVGID_2_);}
	.st2{clip-path:url(#SVGID_4_);}
	.st3{clip-path:url(#SVGID_6_);fill:#F2ECC3;}
	.st4{clip-path:url(#SVGID_8_);}
	.st5{clip-path:url(#SVGID_10_);enable-background:new    ;}
	.st6{clip-path:url(#SVGID_12_);}
	.st7{clip-path:url(#SVGID_14_);}
	.st8{clip-path:url(#SVGID_16_);fill:#F2ECC3;}
</style>
		<g class="st0">
				<defs>
					<rect id="SVGID_1_" x="-122.8" y="18.6" width="85.6" height="82.9"/>
				</defs>
				<clipPath id="SVGID_2_">
					<use xlink:href="#SVGID_1_"  style="overflow:visible;"/>
				</clipPath>
				<g class="st1">
					<defs>
						<path id="SVGID_3_" d="M-45.7,18.6h-70.9c-3.4,0-6.1,2.7-6.1,6v70.9c0,3.3,2.8,6,6.1,6h70.9c3.4,0,6.2-2.7,6.2-6V24.5
							C-39.6,21.2-42.3,18.6-45.7,18.6z M-110.5,89.2h12.4V49.6h-12.4V89.2z M-104.3,44.2c-4,0-7.2-3.2-7.2-7.1
							c0-3.9,3.2-7.1,7.2-7.1c3.9,0,7.2,3.2,7.2,7.1C-97.1,41-100.3,44.2-104.3,44.2z M-51.9,89.2h-12.3V69.9
							c0-4.6-0.1-10.5-6.4-10.5c-6.4,0-7.4,5-7.4,10.2v19.6h-12.3V49.6h11.8V55h0.2c1.6-3.1,5.7-6.4,11.7-6.4
							c12.5,0,14.8,8.2,14.8,18.8V89.2z"/>
					</defs>
					<clipPath id="SVGID_4_">
						<use xlink:href="#SVGID_3_"  style="overflow:visible;"/>
					</clipPath>
					<g class="st2">
						<defs>
							<rect id="SVGID_5_" x="-122.8" y="18.6" width="85.6" height="82.9"/>
						</defs>
						<clipPath id="SVGID_6_">
							<use xlink:href="#SVGID_5_"  style="overflow:visible;"/>
						</clipPath>
						<rect x="-136.6" y="4.8" class="st3" width="110.9" height="110.5"/>
					</g>
				</g>
	<defs>
		<rect id="SVGID_7_" x="13.9" y="15" width="92.3" height="90"/>
	</defs>
	<clipPath id="SVGID_8_">
		<use xlink:href="#SVGID_7_"  style="overflow:visible;"/>
	</clipPath>
	<g class="st4">
		<defs>
			<rect id="SVGID_9_" x="-1583.6" y="-1457.8" width="2900.3" height="3868.9"/>
		</defs>
		<clipPath id="SVGID_10_">
			<use xlink:href="#SVGID_9_"  style="overflow:visible;"/>
		</clipPath>
		<g class="st5">
			<g>
				<defs>
					<rect id="SVGID_11_" x="13.9" y="15" width="93.5" height="90.6"/>
				</defs>
				<clipPath id="SVGID_12_">
					<use xlink:href="#SVGID_11_"  style="overflow:visible;"/>
				</clipPath>
				<g class="st6">
					<defs>
						<path id="SVGID_13_" d="M60,15c-25.5,0-46.1,20.7-46.1,46.1c0,20.4,13.2,37.7,31.6,43.8c2.3,0.4,3.1-1,3.1-2.2
							c0-1.1,0-4-0.1-7.8C35.7,97.6,33,88.7,33,88.7c-2.1-5.3-5.1-6.7-5.1-6.7c-4.2-2.9,0.3-2.8,0.3-2.8c4.6,0.3,7.1,4.8,7.1,4.8
							c4.1,7,10.8,5,13.4,3.8c0.4-3,1.6-5,2.9-6.2c-10.2-1.2-21-5.1-21-22.8c0-5,1.8-9.2,4.7-12.4c-0.5-1.2-2.1-5.9,0.5-12.2
							c0,0,3.9-1.2,12.7,4.7c3.7-1,7.6-1.5,11.6-1.6c3.9,0,7.9,0.5,11.6,1.6c8.8-6,12.7-4.7,12.7-4.7c2.5,6.4,0.9,11,0.5,12.2
							c3,3.2,4.7,7.3,4.7,12.4c0,17.7-10.8,21.6-21.1,22.8c1.7,1.4,3.1,4.2,3.1,8.5c0,6.2-0.1,11.1-0.1,12.7c0,1.2,0.8,2.7,3.2,2.2
							c18.3-6.1,31.5-23.4,31.5-43.8C106.1,35.7,85.5,15,60,15"/>
					</defs>
					<clipPath id="SVGID_14_">
						<use xlink:href="#SVGID_13_"  style="overflow:visible;"/>
					</clipPath>
					<g class="st7">
						<defs>
							<rect id="SVGID_15_" x="13.9" y="15" width="93.5" height="90.6"/>
						</defs>
						<clipPath id="SVGID_16_">
							<use xlink:href="#SVGID_15_"  style="overflow:visible;"/>
						</clipPath>
						<rect x="-0.3" y="0.8" class="st8" width="120.6" height="118.3"/>
					</g>
				</g>
			</g>
		</g>
	</g>
</g>
</svg>
