<?xml version="1.0" encoding="utf-8"?>
<!-- Generator: Adobe Illustrator 19.0.1, SVG Export Plug-In . SVG Version: 6.00 Build 0)  -->
<svg version="1.1" id="Layer_1" xmlns="http://www.w3.org/2000/svg" xmlns:xlink="http://www.w3.org/1999/xlink" x="0px" y="0px"
	 viewBox="0 0 120 120" style="enable-background:new 0 0 120 120;" xml:space="preserve">
<style type="text/css">
	.st0{clip-path:url(#SVGID_2_);}
	.st1{enable-background:new    ;}
	.st2{clip-path:url(#SVGID_4_);}
	.st3{clip-path:url(#SVGID_6_);fill:#F2ECC3;}
	.st4{fill:#F2ECC3;}
</style>
<g>
	<defs>
		<rect id="SVGID_1_" x="151.3" y="13.7" width="97.4" height="95"/>
	</defs>
	<clipPath id="SVGID_2_">
		<use xlink:href="#SVGID_1_"  style="overflow:visible;"/>
	</clipPath>
	<g class="st0">
		<g class="st1">
			<g>
				<g>
					<defs>
						<path id="SVGID_3_" d="M200,9.3c-26.9,0-48.7,21.8-48.7,48.7c0,21.5,13.9,39.8,33.3,46.2c2.4,0.4,3.3-1.1,3.3-2.3
							c0-1.2,0-4.2-0.1-8.3c-13.5,2.9-16.4-6.5-16.4-6.5c-2.2-5.6-5.4-7.1-5.4-7.1c-4.4-3,0.3-3,0.3-3c4.9,0.3,7.5,5,7.5,5
							c4.3,7.4,11.4,5.3,14.2,4c0.4-3.1,1.7-5.3,3.1-6.5c-10.8-1.2-22.2-5.4-22.2-24.1c0-5.3,1.9-9.7,5-13.1
							c-0.5-1.2-2.2-6.2,0.5-12.9c0,0,4.1-1.3,13.4,5c3.9-1.1,8-1.6,12.2-1.6c4.1,0,8.3,0.6,12.2,1.6c9.3-6.3,13.4-5,13.4-5
							c2.7,6.7,1,11.7,0.5,12.9c3.1,3.4,5,7.7,5,13.1c0,18.7-11.4,22.8-22.2,24c1.7,1.5,3.3,4.5,3.3,9c0,6.5-0.1,11.8-0.1,13.4
							c0,1.3,0.9,2.8,3.3,2.3c19.3-6.5,33.3-24.7,33.3-46.2C248.7,31.1,226.9,9.3,200,9.3"/>
					</defs>
					<clipPath id="SVGID_4_">
						<use xlink:href="#SVGID_3_"  style="overflow:visible;"/>
					</clipPath>
					<g class="st2">
						<defs>
							<rect id="SVGID_5_" x="151.3" y="9.3" width="98.6" height="95.6"/>
						</defs>
						<clipPath id="SVGID_6_">
							<use xlink:href="#SVGID_5_"  style="overflow:visible;"/>
						</clipPath>
						<rect x="136.4" y="-5.6" class="st3" width="127.3" height="124.9"/>
					</g>
				</g>
			</g>
		</g>
	</g>
</g>
<path class="st4" d="M98,15.7H22c-3.5,0-6.4,2.9-6.4,6.4v75.9c0,3.5,2.9,6.4,6.4,6.4h76c3.5,0,6.4-2.9,6.4-6.4V22.1
	C104.4,18.5,101.5,15.7,98,15.7z M41.9,91.3H28.8V49h13.2V91.3z M35.2,43.2c-4.3,0-7.8-3.4-7.8-7.6c0-4.2,3.5-7.6,7.8-7.6
	s7.8,3.4,7.8,7.6C43,39.8,39.5,43.2,35.2,43.2z M91.3,67.3v24H78.1c0,0,0-13,0-19.3s0.3-12.5-7.5-12.5c-7.8,0-7.3,10.9-7.3,10.9v21
	H50.2V49h12.6v5.8H63c4.7-8.1,13.9-6.8,13.9-6.8C93.1,48,91.3,67.3,91.3,67.3z"/>
</svg>
