<?xml version="1.0" encoding="UTF-8" standalone="no"?>
<svg width="216px" height="590px" viewBox="0 0 216 590" version="1.1" xmlns="http://www.w3.org/2000/svg" xmlns:xlink="http://www.w3.org/1999/xlink">
    <!-- Generator: Sketch 3.8.3 (29802) - http://www.bohemiancoding.com/sketch -->
    <title>Page 1</title>
    <desc>Created with Sketch.</desc>
    <defs></defs>
    <g id="Page-1" stroke="none" stroke-width="1" fill="none" fill-rule="evenodd">
        <g id="iPad-Pro-Portrait" transform="translate(-808.000000, -16.000000)">
            <g id="Page-1" transform="translate(808.000000, 16.000000)">
                <path d="M38.1851321,165.108513 C38.1851321,165.108513 38.3404075,165.891666 38.5621132,167.330853 C38.7838189,168.774946 39.0801057,170.893874 39.3344151,173.604664 C39.5948377,176.313819 39.7896453,179.618105 39.7965736,183.418197 C39.7819019,187.215837 39.580166,191.51991 38.8111245,196.171825 C38.4223245,198.495125 37.8855849,200.904671 37.1047245,203.346098 C36.7069585,204.564155 36.2676226,205.79611 35.7264,207.01294 C35.5902792,207.316637 35.4533434,207.621969 35.316,207.928118 C35.1811019,208.22037 35.0449811,208.513848 34.9088604,208.808552 C34.7711094,209.104074 34.6329509,209.400413 34.4943849,209.697979 C34.3647849,209.991866 34.2347774,210.28657 34.1043623,210.582092 C32.0152755,215.339463 30.2640453,220.599588 29.3605132,226.167907 C28.9162868,228.948592 28.6888755,231.812661 28.8616755,234.664058 C29.0328453,237.498289 29.6050415,240.377481 30.9511698,242.772311 C31.2816906,243.376844 31.6823094,243.903715 32.1179774,244.426498 C32.6184453,244.993426 33.1197283,245.56158 33.6218264,246.130552 C34.6268377,247.25378 35.6591547,248.374964 36.7036981,249.483478 C38.7862642,251.711132 40.9226264,253.91181 43.0687698,256.118618 C44.1410264,257.224271 45.2165434,258.327879 46.2802415,259.466231 L46.7183547,259.942418 L47.0863698,260.385905 C47.3321208,260.696141 47.5762415,260.936483 47.8236226,261.332964 C48.0616302,261.699608 48.3293887,262.061755 48.5335698,262.437799 L49.1090264,263.574107 C49.7863698,265.140005 50.1026264,266.83384 50.146234,268.476173 C50.1865811,270.120959 50.0145962,271.733045 49.6979321,273.272375 C49.0780528,276.361252 48.0873057,279.249028 47.1026717,282.071814 C46.8475472,282.778532 46.5928302,283.482798 46.3393358,284.18502 C46.0715774,284.877023 45.8278642,285.559626 45.5429887,286.252447 C44.9805736,287.645446 44.4010415,288.993484 43.8084679,290.318631 C42.6253585,292.970971 41.4096453,295.534204 40.3166038,298.061468 C39.2264151,300.586688 38.2503396,303.081661 37.6121208,305.557014 C36.9812377,308.035228 36.7697208,310.475429 37.1760453,312.762352 C37.3859321,313.871683 37.7466113,315.007582 38.179834,316.061324 C38.6159094,317.122832 39.1330868,318.132021 39.7012075,319.084803 C40.8398943,320.990776 42.1941736,322.659268 43.6588981,324.059216 C45.1427774,325.436683 46.7106113,326.574627 48.3098264,327.425223 C49.9082264,328.276227 51.5184453,328.861549 53.0512302,329.237184 C54.5868679,329.609959 56.039366,329.774683 57.3594113,329.857658 C58.0196377,329.866241 58.648483,329.895671 59.2390189,329.868694 C59.5344906,329.853979 59.8209962,329.839673 60.0977208,329.825776 C60.3756679,329.818418 60.6434264,329.80166 60.9001811,329.769369 C61.4145057,329.711736 61.8941887,329.674949 62.3298566,329.611594 C62.765117,329.54129 63.1600302,329.477117 63.5141887,329.419893 C64.2253585,329.311985 64.7580226,329.165246 65.1244075,329.096577 C65.4891623,329.018098 65.6770415,328.977632 65.6770415,328.977632 C65.6770415,328.977632 65.4948679,329.038944 65.1415245,329.157071 C64.7857358,329.265797 64.2677434,329.472212 63.5692075,329.659417 C62.1802868,330.058351 60.0903849,330.550887 57.3532981,330.655935 C55.9859774,330.688225 54.4617509,330.610564 52.8217811,330.322808 C51.1834415,330.038731 49.433434,329.520853 47.6834264,328.687015 C45.934234,327.857674 44.1715925,326.739759 42.5336604,325.29771 C40.9099925,323.843808 39.3800604,322.106647 38.0958792,320.077233 C36.8357434,318.030652 35.7545208,315.762941 35.1925132,313.126951 C35.1595019,312.959775 35.1203774,312.783198 35.0930717,312.622561 L35.0250113,312.157411 L34.9907774,311.924018 L34.9728453,311.639941 L34.9455396,311.133098 C34.9324981,310.794658 34.8998943,310.452949 34.9047849,310.113691 C34.9210868,309.77566 34.9373887,309.435994 34.9536906,309.095101 L34.979366,308.582945 C34.9948528,308.413725 35.022566,308.246549 35.0437585,308.077329 C35.0898113,307.740115 35.1358642,307.401675 35.1823245,307.062009 C35.2923623,306.388399 35.4504906,305.723781 35.5935396,305.05058 C36.2615094,302.389657 37.2620377,299.798629 38.3554868,297.216594 C39.4526038,294.634559 40.6540528,292.057837 41.8057811,289.428387 C42.383683,288.113867 42.9444679,286.782588 43.471834,285.452535 C43.7412226,284.787917 43.9886038,284.082017 44.2490264,283.395327 C44.4923321,282.707002 44.7368604,282.016633 44.9813887,281.323812 C45.9366792,278.533318 46.8785208,275.701131 47.4319698,272.833384 C47.9809358,269.980351 48.0530717,267.04557 46.9420981,264.531386 L46.4701585,263.618252 C46.3071396,263.321095 46.1074415,263.068491 45.9330113,262.788502 C45.7862943,262.522409 45.4847094,262.21299 45.252,261.923191 L44.8811321,261.482156 L44.5334943,261.115104 C43.4913962,260.013539 42.4122113,258.920149 41.3346566,257.824307 C39.1771019,255.632213 37.0073208,253.436032 34.8950038,251.192436 C33.8390491,250.069208 32.7998038,248.938622 31.7719698,247.787191 C31.2653887,247.212088 30.7596226,246.637803 30.2546717,246.064744 C29.7142642,245.423425 29.1991245,244.731012 28.8013585,244.003857 C27.9732226,242.555268 27.4450415,241.007764 27.0639849,239.463121 C26.6865962,237.91439 26.494234,236.355441 26.399683,234.812841 C26.2171019,231.723963 26.4657057,228.696397 26.9335698,225.777148 C27.8904906,219.93211 29.7077434,214.510939 31.8746717,209.586392 C32.0116075,209.276973 32.1481358,208.968371 32.2842566,208.660996 C32.4236377,208.363021 32.5622038,208.066273 32.7003623,207.770343 C32.8385208,207.472777 32.9758642,207.176438 33.1128,206.881325 C33.2407698,206.59643 33.3683321,206.312353 33.4950792,206.029911 C33.9971774,204.896055 34.4230642,203.744215 34.8073811,202.597688 C35.5637887,200.298912 36.0972679,198.001363 36.4893283,195.770847 C37.2661132,191.304094 37.4996377,187.114468 37.5440604,183.406752 C37.5725887,179.694949 37.3928604,176.454427 37.1813434,173.793095 C36.9710491,171.130946 36.7102189,169.047169 36.5145962,167.633733 C36.3165283,166.214983 36.1820377,165.484148 36.1820377,165.484148 L38.1851321,165.108513 Z" id="Fill-1" fill="#F2EDC4"></path>
                <path d="M49.6507381,328.91211 C49.7636287,330.585917 49.9152362,332.27689 50.081923,333.957645 C50.25024,335.640853 50.4413796,337.321608 50.6549343,338.998684 C51.0812287,342.353246 51.5979985,345.694727 52.2451834,349.003101 C52.4122777,349.828355 52.5748891,350.655652 52.7623608,351.475184 C52.9404589,352.297577 53.1373042,353.114247 53.33904,353.929283 C53.5501494,354.740639 53.7543306,355.555266 53.9947834,356.355586 C54.2209721,357.161629 54.4801721,357.953366 54.7381494,358.745512 C55.0156891,359.528257 55.2911909,360.312228 55.6111155,361.071265 C55.7586475,361.458346 55.9322626,361.828259 56.1030249,362.200216 L56.3589645,362.758151 L56.6413947,363.296058 L56.9234174,363.834783 L57.2351909,364.345713 L57.5481872,364.855416 L57.8941947,365.328742 C58.3437192,365.975784 58.8829042,366.498976 59.4339079,366.963309 L59.8275985,367.2948 L59.8414551,367.780797 L59.8561268,368.286004 L59.8846551,368.810423 C59.9074777,369.161534 59.9392664,369.513054 59.974723,369.864165 C60.047674,370.566795 60.1503758,371.266156 60.2767155,371.958568 C60.3370325,372.306001 60.4128362,372.648937 60.4866023,372.992282 C60.5697419,373.332357 60.6459532,373.675293 60.7437645,374.010054 C60.8350551,374.347268 60.9353117,374.680803 61.0473872,375.009024 C61.1476438,375.342968 61.283357,375.658927 61.3986928,375.985105 L61.1733192,377.087078 L61.1737268,377.08667 C61.2637947,376.98898 61.2205947,377.04089 61.227523,377.034759 C61.2254853,377.027811 61.2124438,377.07359 61.2030702,377.091166 C61.17984,377.129588 61.1602777,377.198257 61.141123,377.270605 C61.0893645,377.394045 61.0799909,377.586564 61.0449419,377.744747 L61.0127457,378.296143 L61.0400513,378.882282 C61.0388287,379.075209 61.0865117,379.282442 61.1089268,379.482727 C61.1419381,379.685055 61.153757,379.884931 61.2022551,380.089303 C61.2996589,380.497638 61.3656815,380.905973 61.4859079,381.314717 C61.9093494,382.955006 62.5879155,384.567501 63.2701494,386.164464 C63.6487608,386.953339 63.9882475,387.755704 64.3974249,388.533543 C64.8061947,389.310974 65.1864362,390.09985 65.6176211,390.86788 L66.9091381,393.17197 L68.2748287,395.44009 L68.6163532,396.007017 L68.9713268,396.580894 C69.2166702,396.986368 69.4416362,397.390616 69.6629343,397.798951 C70.0928966,398.618482 70.4975909,399.448641 70.8550098,400.299237 C71.5800362,401.995525 72.1644589,403.754759 72.5854551,405.561407 C72.9991155,407.366829 73.2868438,409.218439 73.2970325,411.09253 C73.3284136,411.559315 73.2962174,412.028144 73.2795079,412.496565 C73.2546475,412.964577 73.2611683,413.434224 73.1878098,413.899783 L73.0154174,415.298505 C72.9803683,415.654929 72.8776664,416.198967 72.8727758,416.553757 L72.8369117,417.141531 L72.8373192,417.759961 C72.8328362,418.172383 72.8760362,418.586849 72.9017117,419.00009 C72.9946325,419.826161 73.1181192,420.653868 73.3284136,421.467268 C73.7163985,423.100609 74.3538023,424.682448 75.1346626,426.186625 C76.701274,429.201112 78.9431909,431.867348 81.5751306,434.037779 C84.2103306,436.211479 87.2575608,437.878337 90.5004136,438.970092 C92.1232664,439.512086 93.7901343,439.93391 95.4863457,440.198776 C96.3279306,440.333253 97.2351306,440.455058 98.1064664,440.584221 C98.9867683,440.712158 99.848323,440.801264 100.720066,440.912443 C104.207448,441.310559 107.715206,441.529237 111.139825,441.229219 C112.852746,441.078802 114.533878,440.765704 116.203598,440.310772 C117.873319,439.859518 119.544263,439.286459 121.246587,438.737516 C124.653274,437.640448 128.0999,436.675812 131.539598,435.747555 C134.987855,434.831151 138.445485,433.95603 141.938572,433.185548 C143.685319,432.798876 145.440625,432.443677 147.231795,432.1596 C147.678059,432.086844 148.128806,432.021445 148.59178,431.974848 C149.040897,431.911493 149.528731,431.890238 150.014119,431.870618 C150.421259,431.851407 150.911538,431.866531 151.314602,431.828927 C151.736006,431.802358 152.154965,431.781103 152.591448,431.730419 C154.32067,431.564469 156.053968,431.294289 157.764444,430.925602 C159.484293,430.59452 161.176429,430.133048 162.859598,429.640512 C166.212897,428.611703 169.470829,427.257943 172.550255,425.549802 C175.625606,423.836756 178.506557,421.748484 181.086738,419.282532 C178.805697,422.0297 176.043749,424.389787 173.021787,426.339087 C172.65418,426.600274 172.263342,426.822631 171.874949,427.049484 L170.709365,427.732495 C170.325863,427.971201 169.919131,428.16372 169.517697,428.366865 L168.309727,428.97385 C167.501968,429.373602 166.665274,429.707954 165.842436,430.078276 C165.008595,430.419986 164.160082,430.724909 163.314421,431.038416 C159.900806,432.202518 156.384082,433.070282 152.773214,433.480661 C152.327765,433.541155 151.859493,433.575489 151.394074,433.612685 C150.911538,433.660917 150.511327,433.653968 150.030829,433.681354 C149.628172,433.704244 149.227961,433.720185 148.795961,433.784766 C148.374557,433.830137 147.946632,433.895945 147.515855,433.969927 C145.797636,434.256865 144.068414,434.620239 142.346934,435.017129 C138.901531,435.806822 135.469983,436.705242 132.052293,437.643309 C128.634602,438.5965 125.237289,439.577485 121.881953,440.68886 C120.204489,441.244343 118.514391,441.841518 116.754602,442.333237 C114.997666,442.828634 113.17267,443.18465 111.344821,443.359593 C107.681787,443.709886 104.050949,443.504288 100.477168,443.127835 C99.58464,443.02197 98.6766249,442.933682 97.7967306,442.813102 C96.9082777,442.689253 96.0520211,442.582571 95.1370777,442.444415 C93.3165645,442.179549 91.5209117,441.732792 89.7725343,441.146244 C86.2761872,439.972332 82.9770928,438.172632 80.1177419,435.81745 C77.2616513,433.46472 74.8216664,430.573265 73.0944815,427.260396 C72.2341494,425.6058 71.5266475,423.856376 71.0873117,422.019481 C70.8517494,421.106347 70.7074777,420.166645 70.6027381,419.221629 C70.5709494,418.74626 70.523674,418.271708 70.5269343,417.792251 L70.5269343,417.073679 L70.5721721,416.326904 C70.5986626,415.789815 70.6740589,415.455871 70.7331532,414.926139 L70.8855758,413.670886 C70.9536362,413.254376 70.9442626,412.828874 70.9666777,412.40705 C70.9813494,411.984818 71.0131381,411.562994 70.9821645,411.138718 C70.9695306,409.443657 70.7131834,407.748187 70.3459834,406.080512 C69.9685947,404.412836 69.4367457,402.772547 68.7712211,401.187847 C68.4435532,400.393249 68.0710551,399.617861 67.6789947,398.857189 C67.4776664,398.481144 67.2718551,398.105509 67.0583004,397.747449 L66.713923,397.182974 L66.3699532,396.602966 L64.9936664,394.283753 L63.6870702,391.916717 C63.2509947,391.12825 62.8609721,390.309127 62.4464966,389.506354 C62.031206,388.70399 61.6790853,387.861568 61.2931381,387.041219 C60.5835985,385.362099 59.8976966,383.666629 59.4477645,381.844858 C59.3230551,381.396466 59.2476589,380.921914 59.1469947,380.461668 C59.0964589,380.231137 59.080157,379.983847 59.0455155,379.745958 C59.0210626,379.503164 58.9733796,379.272224 58.9729721,379.017985 L58.9497419,378.268348 C58.9672664,378.006752 58.9790853,377.749244 59.0063909,377.485604 C59.0618174,377.208067 59.0830098,376.950149 59.1893796,376.654219 C59.2321721,376.512385 59.27904,376.368507 59.3601419,376.209097 C59.4021192,376.127756 59.4224966,376.065219 59.4868891,375.968346 C59.5557645,375.86943 59.5655457,375.822425 59.7314174,375.642986 L59.7322325,375.642169 L59.5068589,376.744142 C59.3764438,376.381178 59.2256513,376.022709 59.1139834,375.655657 C58.9904966,375.291466 58.8800513,374.924414 58.7797947,374.555319 C58.6730174,374.187449 58.5894702,373.815901 58.4998098,373.44517 C58.419523,373.073213 58.337606,372.701665 58.2723985,372.327664 C58.1362777,371.580889 58.0266475,370.831253 57.9479909,370.077938 C57.9100891,369.701076 57.8762626,369.323805 57.8514023,368.944491 L57.8204287,368.373067 C57.8114626,368.178913 57.805757,367.996614 57.8037192,367.780797 L58.2112664,368.598285 C57.4568966,367.981081 56.7840362,367.296844 56.2591155,366.548843 L55.8548287,365.992542 L55.5002626,365.417439 L55.1493645,364.840293 L54.8392211,364.250067 L54.5298928,363.659432 L54.2539834,363.058987 C54.0701796,362.658827 53.883523,362.259075 53.72784,361.851557 C53.3879457,361.043879 53.0994023,360.223939 52.8092287,359.404407 C52.5406551,358.58038 52.2712664,357.756352 52.0381494,356.925376 C51.7895457,356.09726 51.5796589,355.262196 51.3632513,354.428768 C51.1562174,353.593295 50.9548891,352.757414 50.7727155,351.918262 C50.5815758,351.080337 50.4161117,350.239142 50.245757,349.398356 C49.5875683,346.03235 49.0646853,342.649176 48.6335004,339.25701 C48.4175004,337.561132 48.224323,335.862801 48.0543758,334.162017 C47.8856513,332.45919 47.7332287,330.762903 47.6170777,329.043726 L49.6507381,328.91211 Z" id="Fill-3" fill="#F2EDC4"></path>
                <path d="M139.336261,434.62404 C139.331371,434.631398 139.380684,434.551284 139.478088,434.457681 C139.577122,434.362035 139.742586,434.231237 139.994857,434.147036 C140.502254,433.959831 141.305122,434.102074 142.054193,434.592158 C142.82894,435.057309 143.607763,435.806945 144.415522,436.721305 C145.219612,437.640979 146.038782,438.744996 146.867733,439.987578 C147.694646,441.231794 148.542752,442.610079 149.381076,444.097907 C150.218178,445.586961 151.07688,447.170844 151.911944,448.834432 C152.75842,450.494341 153.589816,452.222919 154.42325,453.998094 C155.231008,455.77286 156.080744,457.554166 156.877499,459.37512 C157.279748,460.28294 157.681997,461.191169 158.082208,462.09572 C158.470193,463.004766 158.856548,463.910543 159.24005,464.80937 C159.626812,465.706563 159.998088,466.602121 160.355914,467.491139 C160.71374,468.379749 161.082163,469.252008 161.417982,470.120998 C161.756246,470.98917 162.088397,471.843036 162.414027,472.678917 C162.727023,473.520112 163.033091,474.342914 163.331416,475.144052 C163.915023,476.751642 164.456246,478.276665 164.922888,479.698277 C165.163748,480.406221 165.383008,481.089232 165.585152,481.741588 C165.793001,482.39149 165.983325,483.011146 166.152865,483.597285 C166.32811,484.180971 166.487054,484.729915 166.624805,485.241253 C166.768261,485.750139 166.893786,486.220604 167.000563,486.648967 C167.223084,487.501198 167.375506,488.182983 167.476578,488.654265 C167.525076,488.89338 167.562163,489.076906 167.587431,489.200347 C167.611884,489.336459 167.624518,489.406763 167.624518,489.406763 L165.205725,489.766457 C165.205725,489.766457 165.197982,489.714547 165.18331,489.613996 C165.164155,489.502 165.136035,489.335641 165.099763,489.119007 C165.020291,488.680016 164.898027,488.028069 164.710148,487.197502 C164.621303,486.782218 164.514525,486.322381 164.391038,485.822078 C164.274072,485.320958 164.136729,484.780599 163.984306,484.203452 C163.837997,483.625488 163.67131,483.011964 163.488322,482.366557 C163.311446,481.719924 163.118269,481.041409 162.903899,480.335917 C162.491054,478.921663 162.006888,477.397457 161.482374,475.78905 C161.213801,474.986277 160.937891,474.16184 160.655461,473.31901 C160.360805,472.480268 160.05922,471.623132 159.752744,470.751281 C159.448714,469.878613 159.111672,469.001039 158.785635,468.107116 C158.460005,467.212785 158.120925,466.310687 157.765952,465.406545 C157.414646,464.500769 157.060488,463.588044 156.705106,462.67164 C156.337499,461.760549 155.968261,460.845781 155.599023,459.93142 C154.869514,458.100248 154.074797,456.28052 153.327763,454.482864 C152.563612,452.704828 151.790903,450.950499 151.006374,449.277919 C150.232035,447.59839 149.433242,446.00061 148.653197,444.498067 C147.871522,442.995933 147.078842,441.606613 146.304503,440.352995 C145.528125,439.101012 144.759491,437.990046 144.006752,437.069964 C143.252789,436.155195 142.52165,435.40842 141.823522,434.95921 C141.138435,434.480162 140.481469,434.370619 140.106118,434.496103 C139.915793,434.55251 139.791084,434.644886 139.717318,434.711103 C139.640699,434.782633 139.624805,434.810019 139.619506,434.816559 L139.336261,434.62404 Z" id="Fill-5" fill="#F2EDC4"></path>
                <path d="M153.781118,454.025847 C153.781118,454.025847 151.058296,454.025847 145.381979,459.468681 C138.607322,465.96444 98.312726,476.743835 86.0867185,485.939756 C73.8611185,495.136085 64.080394,508.624226 64.080394,517.820556 C64.080394,527.016477 57.967594,553.379234 57.967594,553.379234 C57.967594,553.379234 51.854794,577.289527 54.2996694,588.938321" id="Stroke-7" stroke="#F2EDC4" stroke-width="7"></path>
                <path d="M161.776868,473.668691 C161.776868,473.668691 151.886106,493.910099 162.388189,514.141697 C172.890272,534.373704 172.278951,538.665106 172.278951,538.665106 C172.278951,538.665106 172.890272,544.183149 179.003072,544.183149 C185.115872,544.183149 208.236838,548.474552 214.709502,536.213052" id="Stroke-9" stroke="#F2EDC4" stroke-width="6"></path>
                <path d="M173.501348,118.088778 C173.501348,118.088778 148.43842,137.094553 109.92725,130.350687 C71.41608,123.606412 66.525514,137.707669 66.525514,137.707669 C66.525514,137.707669 40.2432045,151.195401 32.6004725,172.653231 C32.6004725,172.653231 31.6851215,158.552383 39.3245932,147.516705 C39.3245932,147.516705 29.5703592,147.516705 28.7923517,158.552383 C28.7923517,158.552383 23.1237781,146.90359 31.6818611,145.371209 C31.6818611,145.371209 22.0075064,143.244105 17.6602008,147.604177 C17.6602008,147.604177 19.5622234,139.70193 29.6151894,139.429298 C29.6151894,139.429298 27.1699064,133.162027 7.3358083,144.879081 C7.3358083,144.879081 15.2149177,135.614491 27.1699064,131.25442 C39.1244875,126.894348 11.139446,127.16698 11.139446,127.16698 C11.139446,127.16698 27.7131668,118.719469 27.7131668,110.544591 C27.7131668,102.369712 19.018963,96.6472974 19.018963,96.6472974 C19.018963,96.6472974 27.4413328,95.5575861 45.1019819,89.5625389 C45.1019819,89.5625389 26.1265857,83.7518352 28.2784347,99.8731044 C28.2784347,99.8731044 25.2678838,89.1582911 32.0604725,85.0005479 C32.0604725,85.0005479 23.8496196,82.6592627 21.4340875,92.3783758 C21.4340875,92.3783758 20.6491517,79.2078289 33.1469932,73.4854139 C33.1469932,73.4854139 40.4828423,56.8630246 60.5887743,51.1406096 C60.5887743,51.1406096 50.3923517,47.3258026 40.2754008,58.4980003 C40.2754008,58.4980003 58.4149177,32.0657568 73.0866158,45.6908269 C73.0866158,45.6908269 69.0111442,38.3334362 73.3584498,35.6083404 C73.3584498,35.6083404 67.8875366,24.7921586 55.9512951,36.3314084 C55.9512951,36.3314084 66.0226008,16.5334875 79.0641102,32.8832446 C79.0641102,32.8832446 87.2150536,24.4361426 79.3359442,22.2559025 C71.4564272,20.0760711 67.2892574,20.9520094 62.8522913,24.6016839 C62.8522913,24.6016839 71.7282611,8.35860895 87.758314,21.7110468 C87.758314,21.7110468 98.8982083,14.3536561 109.765861,16.5334875 C109.765861,16.5334875 102.430012,8.0863855 91.8337857,14.0810239 C91.8337857,14.0810239 88.8452423,1.00121825 110.580955,3.18145836 C110.580955,3.18145836 113.569906,-0.0884930604 100.256563,0.728994795 C100.256563,0.728994795 113.569906,-3.35844448 136.935808,17.6236076 C136.935808,17.6236076 141.826374,7.5411211 158.943355,10.2662169 C158.943355,10.2662169 170.354676,6.72363324 180.950903,9.17609681 C191.547129,11.6285604 200.445106,15.0350323 200.445106,15.0350323 C200.445106,15.0350323 210.837559,11.9694528 214.30171,14.0131724 C217.765861,16.0568921 214.097937,171.175213 214.097937,171.175213 C214.097937,171.175213 185.365861,147.672437 186.99605,130.913936 C188.626238,114.155435 173.501348,118.088778 173.501348,118.088778" id="Fill-11" fill="#F2EDC4"></path>
                <path d="M70.2902717,246.236089 C70.5580302,242.765445 72.0072679,230.208831 79.1458642,225.231148 C79.4270717,225.03495 79.7066491,224.842023 79.9756302,224.629885 C82.3993132,222.719825 96.3390566,212.209792 108.431796,213.202222 C108.87317,213.238601 109.312506,213.261899 109.755509,213.245549 C112.773804,213.134371 126.355313,213.11843 131.773653,221.450675 C137.746664,230.636377 139.050815,234.163429 139.487706,245.94956 C139.50686,246.473978 139.561472,246.995535 139.647057,247.513414 C140.208249,250.916616 142.031208,265.574582 133.607615,274.383014 C124.671328,283.726491 124.976581,286.875863 108.935525,288.221039 C106.130377,288.456476 103.30363,288.141743 100.628898,287.262126 C91.5067698,284.261128 71.8405811,274.710009 70.2719321,247.867386 C70.2401434,247.324166 70.2482943,246.778901 70.2902717,246.236089 L70.2902717,246.236089 Z M0.000203773585,247.136961 L1.35855849,256.057388 C5.16219623,258.782484 4.89076981,262.869923 4.89076981,262.869923 C6.52095849,276.767217 13.0417132,290.391878 20.5572906,297.340525 C28.0732755,304.289172 38.1201283,300.610476 38.1201283,300.610476 L40.800566,294.326039 C40.800566,294.326039 39.7874038,296.591706 31.6189358,297.436171 C23.4508755,298.281045 19.290634,290.119655 19.290634,290.119655 C7.33605283,278.12956 8.69440755,252.515213 8.69440755,252.515213 C8.69440755,252.515213 5.97729057,239.162776 21.464083,235.347968 C36.9508755,231.532753 45.7812,247.136961 45.7812,247.136961 C45.7812,247.136961 49.9923849,253.877557 48.0907698,263.823523 L49.5848377,270.363426 C50.7822113,257.825206 48.6340302,252.515213 58.4151623,250.880238 C62.5126415,250.195183 63.4748604,254.28998 63.4748604,254.28998 C63.4748604,254.28998 64.935917,274.042121 84.7696075,286.032216 C104.603706,298.021901 124.16597,290.937143 138.022574,278.12956 C151.879177,265.322387 147.531872,231.532753 147.531872,231.532753 C148.346966,222.813018 151.335917,221.722898 151.335917,221.722898 L214.098181,218.725579 L214.098181,208.643093 L140.467857,209.188357 C121.992521,198.833238 94.2793132,208.915725 94.2793132,208.915725 C75.5321434,213.003164 64.1208226,233.712993 64.1208226,233.712993 C62.7620604,237.255168 55.4262113,238.345288 55.4262113,238.345288 C51.8944075,239.435408 44.6225434,239.435408 44.6225434,239.435408 C30.8303321,229.352921 22.9899396,231.368846 22.9899396,231.368846 C7.12738868,234.202259 2.71691321,245.157823 2.71691321,245.157823 L0.000203773585,247.136961 Z" id="Fill-13" fill="#F2EDC4"></path>
                <path d="M60.7470249,373.268634 L62.968157,373.597264 C64.3917192,373.800409 66.433123,374.077129 68.8885947,374.378782 C73.7991306,374.985767 80.3704211,375.675318 86.9624966,376.081201 C88.6106174,376.183387 90.2591457,376.264318 91.8832211,376.329717 C93.5068891,376.38735 95.1061042,376.431085 96.6535608,376.444574 C98.2010174,376.457654 99.6979381,376.451114 101.115795,376.411874 C102.534466,376.37754 103.875297,376.31582 105.110572,376.229575 C106.347478,376.150278 107.477198,376.034195 108.479357,375.922608 C108.97901,375.856391 109.446466,375.794671 109.878874,375.737856 C110.311282,375.677362 110.704157,375.600926 111.062391,375.542885 C111.780082,375.432933 112.332715,375.294777 112.71418,375.21589 C113.094829,375.133323 113.298195,375.089588 113.298195,375.089588 C113.298195,375.089588 113.101757,375.157031 112.733334,375.283332 C112.363689,375.405956 111.826134,375.609101 111.123523,375.803255 C110.773032,375.902988 110.387085,376.02602 109.961198,376.137607 C109.534497,376.245516 109.073153,376.362416 108.580021,376.487492 C107.589274,376.717615 106.466482,376.968175 105.233244,377.193802 C104.001229,377.426377 102.659583,377.647099 101.236836,377.849427 C99.8140891,378.05666 98.3094249,378.240595 96.7501494,378.409815 C95.190874,378.579852 93.5773947,378.724956 91.9353872,378.859024 C90.2941947,378.985326 88.6248815,379.098957 86.9547532,379.190924 C80.2734249,379.562473 73.5806853,379.646265 68.5584815,379.616427 C66.0467683,379.603347 63.9523834,379.566151 62.4823608,379.529773 C61.0037796,379.485629 60.1585268,379.460287 60.1585268,379.460287 L60.7470249,373.268634 Z" id="Fill-15" fill="#F2EDC4"></path>
            </g>
        </g>
    </g>
</svg>